# Blender v3.2.1 OBJ File: ''
# www.blender.org
mtllib empty box.mtl
o Cube
v 1.000000 1.000000 -1.000000
v 1.000000 -1.000000 -1.000000
v 1.000000 1.000000 1.000000
v 1.000000 -1.000000 1.000000
v -1.000000 1.000000 -1.000000
v -1.000000 -1.000000 -1.000000
v -1.000000 1.000000 1.000000
v -1.000000 -1.000000 1.000000
v 0.903853 1.000000 -0.903853
v -0.903853 1.000000 -0.903853
v -0.903853 1.000000 0.903853
v 0.903853 1.000000 0.903853
v 0.903853 -0.903853 1.000000
v 0.903853 0.903853 1.000000
v -0.903853 0.903853 1.000000
v -0.903853 -0.903853 1.000000
v -1.000000 -0.903853 0.903853
v -1.000000 0.903853 0.903853
v -1.000000 0.903853 -0.903853
v -1.000000 -0.903853 -0.903853
v -0.903853 -1.000000 -0.903853
v 0.903853 -1.000000 -0.903853
v 0.903853 -1.000000 0.903853
v -0.903853 -1.000000 0.903853
v 1.000000 -0.903853 -0.903853
v 1.000000 0.903853 -0.903853
v 1.000000 0.903853 0.903853
v 1.000000 -0.903853 0.903853
v -0.903853 -0.903853 -1.000000
v -0.903853 0.903853 -1.000000
v 0.903853 0.903853 -1.000000
v 0.903853 -0.903853 -1.000000
v -0.903853 0.949536 -0.903853
v 0.903853 0.949536 -0.903853
v 0.903853 0.949536 0.903853
v -0.903853 0.949536 0.903853
v 0.903853 0.903853 0.949536
v 0.903853 -0.903853 0.949536
v -0.903853 -0.903853 0.949536
v -0.903853 0.903853 0.949536
v -0.949536 -0.903853 0.903853
v -0.949536 0.903853 0.903853
v -0.949536 -0.903853 -0.903853
v -0.949536 0.903853 -0.903853
v 0.903853 -0.949536 -0.903853
v -0.903853 -0.949536 -0.903853
v -0.903853 -0.949536 0.903853
v 0.903853 -0.949536 0.903853
v 0.949536 0.903853 -0.903853
v 0.949536 -0.903853 -0.903853
v 0.949536 -0.903853 0.903853
v 0.949536 0.903853 0.903853
v -0.903853 0.903853 -0.949536
v -0.903853 -0.903853 -0.949536
v 0.903853 -0.903853 -0.949536
v 0.903853 0.903853 -0.949536
v -0.949536 -0.900687 -0.820590
v -0.949536 0.815677 0.890860
v -0.949536 0.895773 0.810763
v -0.949536 -0.820590 -0.900687
v -1.002957 -0.900687 -0.820590
v -1.002957 0.815677 0.890860
v -1.002957 -0.820590 -0.900687
v -1.002957 0.895773 0.810763
v 0.840245 0.949536 -0.895620
v -0.905447 0.949536 0.840245
v -0.850073 0.949536 0.895620
v 0.895620 0.949536 -0.840245
v -0.835331 -0.885792 0.949536
v 0.890706 0.835331 0.949536
v 0.835332 0.890706 0.949536
v -0.890706 -0.830418 0.949536
v -0.890706 -0.949536 -0.840245
v -0.835332 -0.949536 -0.895620
v 0.890706 -0.949536 0.840245
v 0.835332 -0.949536 0.895620
v 0.949536 0.840245 -0.885792
v 0.949536 0.895620 -0.830418
v 0.949536 -0.845159 0.900534
v 0.949536 -0.900534 0.845159
v -0.895620 0.835331 -0.949536
v -0.840245 0.890706 -0.949536
v 0.905447 -0.850073 -0.949536
v 0.850072 -0.905447 -0.949536
v -0.835331 -0.885792 0.989313
v 0.890706 0.835331 0.989313
v -0.890706 -0.830418 0.989313
v 0.835332 0.890706 0.989313
v 0.989313 0.895620 -0.830418
v 0.989313 0.840245 -0.885792
v 0.989313 -0.900534 0.845159
v 0.989313 -0.845159 0.900534
v -0.840245 0.890706 -0.989313
v -0.895620 0.835331 -0.989313
v 0.850072 -0.905447 -0.989313
v 0.905447 -0.850073 -0.989313
v -0.905447 0.993076 0.840245
v 0.840245 0.993076 -0.895620
v 0.895620 0.993076 -0.840245
v -0.850073 0.993076 0.895620
v -0.835332 -0.993076 -0.895620
v -0.890706 -0.993076 -0.840245
v 0.835332 -0.993076 0.895620
v 0.890706 -0.993076 0.840245
vt 0.612982 0.762018
vt 0.612982 0.987982
vt 0.612982 0.987982
vt 0.612982 0.762018
vt 0.387018 0.512018
vt 0.612982 0.512018
vt 0.612982 0.512018
vt 0.387018 0.512018
vt 0.387018 0.237982
vt 0.387018 0.012018
vt 0.387018 0.012018
vt 0.387018 0.237982
vt 0.862981 0.512018
vt 0.862982 0.737982
vt 0.862982 0.737982
vt 0.862981 0.512018
vt 0.137018 0.512018
vt 0.362982 0.512018
vt 0.362982 0.512018
vt 0.137018 0.512018
vt 0.387018 0.987982
vt 0.387018 0.762018
vt 0.387018 0.762018
vt 0.387018 0.987982
vt 0.625000 0.500000
vt 0.875000 0.500000
vt 0.637018 0.512018
vt 0.875000 0.750000
vt 0.625000 0.750000
vt 0.637018 0.737982
vt 0.375000 0.750000
vt 0.625000 1.000000
vt 0.375000 1.000000
vt 0.375000 0.000000
vt 0.625000 0.000000
vt 0.612982 0.012018
vt 0.625000 0.250000
vt 0.612982 0.237982
vt 0.375000 0.250000
vt 0.125000 0.500000
vt 0.375000 0.500000
vt 0.362982 0.737982
vt 0.125000 0.750000
vt 0.137018 0.737982
vt 0.612982 0.737982
vt 0.387018 0.737982
vt 0.612982 0.262018
vt 0.387018 0.262018
vt 0.612982 0.487982
vt 0.387018 0.487982
vt 0.754894 0.620106
vt 0.754894 0.629894
vt 0.754894 0.629894
vt 0.754894 0.620106
vt 0.495106 0.379894
vt 0.495106 0.370106
vt 0.495106 0.370106
vt 0.495106 0.379894
vt 0.553642 0.178642
vt 0.446358 0.178642
vt 0.446358 0.178642
vt 0.553642 0.178642
vt 0.245106 0.629894
vt 0.245106 0.620106
vt 0.245106 0.620106
vt 0.245106 0.629894
vt 0.504894 0.620106
vt 0.504894 0.629894
vt 0.504894 0.629894
vt 0.504894 0.620106
vt 0.495106 0.879894
vt 0.495106 0.870106
vt 0.495106 0.870106
vt 0.495106 0.879894
vt 0.137018 0.737982
vt 0.612982 0.262018
vt 0.387018 0.262018
vt 0.637018 0.737982
vt 0.612982 0.237982
vt 0.612982 0.012018
vt 0.387018 0.737982
vt 0.362982 0.737982
vt 0.387018 0.487982
vt 0.612982 0.737982
vt 0.612982 0.487982
vt 0.637018 0.512018
vt 0.553642 0.071358
vt 0.446358 0.071358
vt 0.446358 0.071358
vt 0.553642 0.071358
vt 0.745106 0.620106
vt 0.745106 0.629894
vt 0.504894 0.870105
vt 0.504894 0.879894
vt 0.254894 0.620106
vt 0.254894 0.629894
vt 0.495106 0.620106
vt 0.495106 0.629894
vt 0.504894 0.370106
vt 0.504894 0.379894
vt 0.504894 0.870105
vt 0.504894 0.879894
vt 0.495106 0.620106
vt 0.495106 0.629894
vt 0.504894 0.370106
vt 0.504894 0.379894
vt 0.745106 0.620106
vt 0.745106 0.629894
vt 0.254894 0.620106
vt 0.254894 0.629894
vn 0.0000 -1.0000 0.0000
vn 0.0000 0.0000 1.0000
vn 0.0000 1.0000 0.0000
vn 1.0000 0.0000 0.0000
vn -1.0000 0.0000 0.0000
vn 0.0000 0.0000 -1.0000
vn -0.7071 0.0000 0.7071
vn -0.7061 -0.7081 0.0000
vn 0.0000 0.7061 -0.7081
vn -0.7091 0.0000 0.7051
vn 0.0000 0.7051 0.7091
vn -0.7071 -0.7071 0.0000
vn 0.0000 -0.7071 -0.7071
vn 0.0000 0.7071 0.7071
vn 0.0000 -0.7061 0.7081
vn 0.0307 0.0000 -0.9995
vn 0.0000 -0.7071 0.7071
vn 0.7071 0.7071 0.0000
vn 0.7061 0.7081 0.0000
vn 0.0000 0.7071 -0.7071
vn -0.7061 0.7081 0.0000
vn 0.7071 -0.7071 0.0000
vn 0.7061 -0.7081 0.0000
vn 0.0000 -0.7051 -0.7091
vn -0.7071 0.7071 0.0000
vn -0.7051 0.0000 -0.7091
vn 0.7091 0.0000 -0.7051
vn -0.7071 0.0000 -0.7071
vn 0.7051 0.0000 0.7091
vn 0.7071 0.0000 -0.7071
vn 0.7071 0.0000 0.7071
usemtl Material
s off
f 14/1/1 15/2/1 40/3/1 37/4/1
f 25/5/2 26/6/2 49/7/2 50/8/2
f 20/9/3 17/10/3 41/11/3 43/12/3
f 10/13/4 11/14/4 36/15/4 33/16/4
f 21/17/2 22/18/2 45/19/2 46/20/2
f 16/21/3 13/22/3 38/23/3 39/24/3
f 1/25/3 5/26/3 10/13/3 9/27/3
f 5/26/3 7/28/3 11/14/3 10/13/3
f 7/28/3 3/29/3 12/30/3 11/14/3
f 3/29/3 1/25/3 9/27/3 12/30/3
f 4/31/2 3/29/2 14/1/2 13/22/2
f 3/29/2 7/32/2 15/2/2 14/1/2
f 7/32/2 8/33/2 16/21/2 15/2/2
f 8/33/2 4/31/2 13/22/2 16/21/2
f 8/34/5 7/35/5 18/36/5 17/10/5
f 7/35/5 5/37/5 19/38/5 18/36/5
f 5/37/5 6/39/5 20/9/5 19/38/5
f 6/39/5 8/34/5 17/10/5 20/9/5
f 6/40/1 2/41/1 22/18/1 21/17/1
f 2/41/1 4/31/1 23/42/1 22/18/1
f 4/31/1 8/43/1 24/44/1 23/42/1
f 8/43/1 6/40/1 21/17/1 24/44/1
f 2/41/4 1/25/4 26/6/4 25/5/4
f 1/25/4 3/29/4 27/45/4 26/6/4
f 3/29/4 4/31/4 28/46/4 27/45/4
f 4/31/4 2/41/4 25/5/4 28/46/4
f 6/39/6 5/37/6 30/47/6 29/48/6
f 5/37/6 1/25/6 31/49/6 30/47/6
f 1/25/6 2/41/6 32/50/6 31/49/6
f 2/41/6 6/39/6 29/48/6 32/50/6
f 66/51/7 67/52/7 100/53/7 97/54/7
f 84/55/8 81/56/8 94/57/8 95/58/8
f 59/59/9 60/60/9 63/61/9 64/62/9
f 76/63/10 73/64/10 102/65/10 103/66/10
f 78/67/11 79/68/11 92/69/11 89/70/11
f 72/71/12 69/72/12 85/73/12 87/74/12
f 24/44/4 21/17/4 46/20/4 47/75/4
f 29/48/4 30/47/4 53/76/4 54/77/4
f 11/14/6 12/30/6 35/78/6 36/15/6
f 18/36/1 19/38/1 44/79/1 42/80/1
f 28/46/3 25/5/3 50/8/3 51/81/3
f 15/2/4 16/21/4 39/24/4 40/3/4
f 22/18/5 23/42/5 48/82/5 45/19/5
f 32/50/3 29/48/3 54/77/3 55/83/3
f 19/38/2 20/9/2 43/12/2 44/79/2
f 26/6/1 27/45/1 52/84/1 49/7/1
f 23/42/6 24/44/6 47/75/6 48/82/6
f 30/47/1 31/49/1 56/85/1 53/76/1
f 27/45/6 28/46/6 51/81/6 52/84/6
f 31/49/5 32/50/5 55/83/5 56/85/5
f 9/27/2 10/13/2 33/16/2 34/86/2
f 13/22/5 14/1/5 37/4/5 38/23/5
f 12/30/5 9/27/5 34/86/5 35/78/5
f 17/10/6 18/36/6 42/80/6 41/11/6
f 41/11/5 42/80/5 58/87/5 57/88/5
f 42/80/5 44/79/5 59/59/5 58/87/5
f 44/79/5 43/12/5 60/60/5 59/59/5
f 43/12/5 41/11/5 57/88/5 60/60/5
f 61/89/5 62/90/5 64/62/5 63/61/5
f 60/60/13 57/88/13 61/89/13 63/61/13
f 58/87/14 59/59/14 64/62/14 62/90/14
f 57/88/15 58/87/15 62/90/15 61/89/15
f 34/86/3 33/16/3 66/51/3 65/91/3
f 33/16/3 36/15/3 67/52/3 66/51/3
f 36/15/3 35/78/3 68/92/3 67/52/3
f 35/78/3 34/86/3 65/91/3 68/92/3
f 38/23/2 37/4/2 70/93/2 69/72/2
f 37/4/2 40/3/2 71/94/2 70/93/2
f 40/3/2 39/24/2 72/71/2 71/94/2
f 39/24/2 38/23/2 69/72/2 72/71/2
f 46/20/1 45/19/1 74/95/1 73/64/1
f 45/19/1 48/82/1 75/96/1 74/95/1
f 48/82/1 47/75/1 76/63/1 75/96/1
f 47/75/1 46/20/1 73/64/1 76/63/1
f 50/8/4 49/7/4 78/67/4 77/97/4
f 49/7/4 52/84/4 79/68/4 78/67/4
f 52/84/4 51/81/4 80/98/4 79/68/4
f 51/81/4 50/8/4 77/97/4 80/98/4
f 54/77/6 53/76/6 82/99/6 81/56/6
f 53/76/6 56/85/6 83/100/6 82/99/6
f 56/85/16 55/83/16 84/55/16 83/100/16
f 55/83/6 54/77/6 81/56/6 84/55/6
f 85/73/2 86/101/2 88/102/2 87/74/2
f 90/103/4 89/70/4 92/69/4 91/104/4
f 94/57/6 93/105/6 96/106/6 95/58/6
f 79/68/17 80/98/17 91/104/17 92/69/17
f 70/93/18 71/94/18 88/102/18 86/101/18
f 82/99/19 83/100/19 96/106/19 93/105/19
f 77/97/20 78/67/20 89/70/20 90/103/20
f 71/94/21 72/71/21 87/74/21 88/102/21
f 83/100/22 84/55/22 95/58/22 96/106/22
f 69/72/23 70/93/23 86/101/23 85/73/23
f 80/98/24 77/97/24 90/103/24 91/104/24
f 81/56/25 82/99/25 93/105/25 94/57/25
f 98/107/3 97/54/3 100/53/3 99/108/3
f 102/65/1 101/109/1 104/110/1 103/66/1
f 65/91/26 66/51/26 97/54/26 98/107/26
f 74/95/27 75/96/27 104/110/27 101/109/27
f 73/64/28 74/95/28 101/109/28 102/65/28
f 67/52/29 68/92/29 99/108/29 100/53/29
f 68/92/30 65/91/30 98/107/30 99/108/30
f 75/96/31 76/63/31 103/66/31 104/110/31
