# Blender v2.93.1 OBJ File: 'Road.blend'
# www.blender.org
mtllib Road.mtl
o Plane
v 1.235600 0.000001 -4.962494
v 1.235600 -0.000001 5.122339
v 1.235600 0.109695 5.122339
v 1.235600 0.109697 -4.962494
v -1.926325 0.000001 -4.962494
v -1.926325 -0.000001 5.122339
v -1.926325 0.109695 5.122339
v -1.926325 0.109697 -4.962494
v -1.235600 -0.000001 5.122339
v -1.235600 0.000001 -4.962494
v 1.926325 0.109695 5.122339
v 1.926325 0.109697 -4.962494
v -1.235600 0.109695 5.122339
v -1.235600 0.109697 -4.962494
v 1.926325 -0.000001 5.122339
v 1.926325 0.000001 -4.962494
vt 0.179286 0.000000
vt 0.820714 0.000000
vt 0.820714 1.000000
vt 0.179286 1.000000
vt 0.820714 0.000000
vt 0.820714 1.000000
vt 0.000000 0.000000
vt 0.000000 0.000000
vt 0.000000 0.000000
vt 0.000000 0.000000
vt 1.000000 0.000000
vt 1.000000 1.000000
vt 0.179286 0.000000
vt 0.179286 1.000000
vt 0.000000 1.000000
vt 0.000000 0.000000
vt 0.000000 0.000000
vt 0.000000 0.000000
vt 0.000000 0.000000
vt 0.000000 0.000000
vt 0.000000 0.000000
vt 0.000000 0.000000
vt 0.000000 0.000000
vn 0.0000 1.0000 0.0000
vn -1.0000 0.0000 0.0000
vn 0.0000 0.0000 1.0000
vn 1.0000 0.0000 0.0000
usemtl Black
s 1
f 9/1/1 2/2/1 1/3/1 10/4/1
usemtl White
f 1/3/2 2/2/2 3/5/2 4/6/2
f 5/7/2 6/8/2 7/9/2 8/10/2
f 3/5/1 11/11/1 12/12/1 4/6/1
f 7/9/1 13/13/1 14/14/1 8/15/1
f 2/16/3 15/17/3 11/18/3 3/19/3
f 9/1/4 10/4/4 14/14/4 13/13/4
f 6/8/3 9/20/3 13/21/3 7/9/3
f 15/17/4 16/22/4 12/23/4 11/18/4
